<svg xmlns="http://www.w3.org/2000/svg" viewBox="0 0 135 128" width="135" height="128" fill="currentColor" style="shape-rendering:geometricPrecision;fill-rule:evenodd;clip-rule:evenodd">
  <!-- f glyph -->
  <path d="M 72.5,-0.5 C 75.1667,-0.5 77.8333,-0.5 80.5,-0.5C 85.6754,1.3447 88.0087,5.01137 87.5,10.5C 85.6081,14.1684 82.6081,15.3351 78.5,14C 75.794,11.6294 73.4606,8.96276 71.5,6C 68.2106,5.2536 65.7106,6.42027 64,9.5C 59.7781,18.0515 56.9448,27.0515 55.5,36.5C 60.8333,36.5 66.1667,36.5 71.5,36.5C 71.1667,38.5 70.8333,40.5 70.5,42.5C 65.1254,42.1718 59.7921,42.5052 54.5,43.5C 51.6293,54.3926 49.296,65.3926 47.5,76.5C 45.4953,88.9538 41.662,100.954 36,112.5C 32.8333,115.667 29.6667,118.833 26.5,122C 22.2832,124.451 17.9499,126.285 13.5,127.5C 10.8333,127.5 8.16667,127.5 5.5,127.5C 3.52483,125.863 1.52483,124.196 -0.5,122.5C -0.5,120.833 -0.5,119.167 -0.5,117.5C 1.74894,113.748 5.08228,112.581 9.5,114C 12.3777,116.709 15.0443,119.542 17.5,122.5C 19.4219,121.289 21.2552,119.956 23,118.5C 28.9508,106.138 32.7841,93.1383 34.5,79.5C 36.3454,72.6058 37.6788,65.6058 38.5,58.5C 40.1439,53.7056 41.4772,48.7056 42.5,43.5C 38.5546,42.5091 34.5546,42.1758 30.5,42.5C 30.2606,40.5328 30.5939,38.6995 31.5,37C 35.8206,36.501 40.1539,36.3343 44.5,36.5C 44.448,34.0971 44.7814,31.7638 45.5,29.5C 49.4574,14.8909 58.4574,4.89089 72.5,-0.5 Z"/>
  <!-- x glyph -->
  <path d="M 83.5,35.5 C 87.4137,35.1113 91.0804,35.7779 94.5,37.5C 97.8383,41.4909 99.8383,46.1575 100.5,51.5C 101.073,54.1466 101.74,56.8133 102.5,59.5C 107.184,51.6389 112.851,44.4722 119.5,38C 125.217,34.1763 130.217,34.6763 134.5,39.5C 134.5,40.8333 134.5,42.1667 134.5,43.5C 133.254,45.9015 131.254,47.4015 128.5,48C 124.484,48.1859 120.484,48.1859 116.5,48C 111.097,53.3191 107.097,59.4857 104.5,66.5C 106.102,74.4733 108.602,82.14 112,89.5C 112.833,90.3333 113.667,91.1667 114.5,92C 118.821,92.499 123.154,92.6657 127.5,92.5C 127.5,93.8333 127.5,95.1667 127.5,96.5C 123.916,96.9754 120.583,97.9754 117.5,99.5C 113.486,99.6655 109.486,99.4988 105.5,99C 104.692,98.6924 104.025,98.1924 103.5,97.5C 99.9085,90.7936 97.0752,83.7936 95,76.5C 90.0048,84.3088 84.1714,91.4754 77.5,98C 74.6883,99.5489 71.6883,100.382 68.5,100.5C 61.9979,95.9375 61.9979,91.2709 68.5,86.5C 72.6588,86.5005 76.6588,87.0005 80.5,88C 85.4347,83.0675 89.6014,77.5675 93,71.5C 92.707,61.9956 90.3737,52.9956 86,44.5C 83.7057,43.1478 81.2057,42.4811 78.5,42.5C 76.1296,42.9243 73.7963,43.0909 71.5,43C 72.0712,41.7949 72.7379,40.6283 73.5,39.5C 76.932,38.1068 80.2653,36.7734 83.5,35.5 Z"/>
</svg>
