<svg xmlns="http://www.w3.org/2000/svg" viewBox="0 0 24 24" fill="none" stroke="currentColor" stroke-width="1.75" stroke-linecap="round" stroke-linejoin="round">
  <circle cx="12" cy="12" r="3"/>
  <path d="M12 2a1 1 0 0 1 1 1v1.07A7 7 0 0 1 17.66 7l.93-.54a1 1 0 0 1 1.37.37l1 1.73a1 1 0 0 1-.37 1.37l-.93.54A7 7 0 0 1 20 12a7 7 0 0 1-.34 2.07l.93.54a1 1 0 0 1 .37 1.37l-1 1.73a1 1 0 0 1-1.37.37l-.93-.54A7 7 0 0 1 13 17.93V19a1 1 0 0 1-1 1h-2a1 1 0 0 1-1-1v-1.07A7 7 0 0 1 6.34 15l-.93.54a1 1 0 0 1-1.37-.37l-1-1.73a1 1 0 0 1 .37-1.37l.93-.54A7 7 0 0 1 4 12c0-.73.12-1.43.34-2.07l-.93-.54a1 1 0 0 1-.37-1.37l1-1.73a1 1 0 0 1 1.37-.37l.93.54A7 7 0 0 1 9 4.07V3a1 1 0 0 1 1-1h2z"/>
</svg>
